HIERARCHY
ROOT Hips
{
	OFFSET	0.00	0.00	0.00
	CHANNELS 6 Xposition Yposition Zposition Zrotation Xrotation Yrotation
	JOINT LeftUpLeg
	{
		OFFSET	 0.126116	-0.014019	-0.065224
		CHANNELS 3 Zrotation Xrotation Yrotation
		JOINT LeftLeg
		{
			OFFSET	 0.000000	 0.000000	 0.569914
			CHANNELS 3 Zrotation Xrotation Yrotation
			JOINT LeftFoot
			{
				OFFSET	 0.000000	 0.000000	 0.544423
				CHANNELS 3 Zrotation Xrotation Yrotation
				JOINT LeftToeBase
				{
					OFFSET	 0.000000	 0.000000	 0.207117
					CHANNELS 3 Zrotation Xrotation Yrotation
					End Site
					{
						OFFSET	 0.000000	 0.000000	 0.207117
					}
				}
			}
		}
	}
	JOINT RightUpLeg
	{
		OFFSET	-0.124023	-0.008373	-0.065224
		CHANNELS 3 Zrotation Xrotation Yrotation
		JOINT RightLeg
		{
			OFFSET	 0.000000	 0.000000	 0.570047
			CHANNELS 3 Zrotation Xrotation Yrotation
			JOINT RightFoot
			{
				OFFSET	 0.000000	 0.000000	 0.544354
				CHANNELS 3 Zrotation Xrotation Yrotation
				JOINT RightToeBase
				{
					OFFSET	 0.000000	 0.000000	 0.207540
					CHANNELS 3 Zrotation Xrotation Yrotation
					End Site
					{
						OFFSET	 0.000000	 0.000000	 0.207540
					}
				}
			}
		}
	}
	JOINT Spine
	{
		OFFSET	 0.000184	-0.007763	 0.117403
		CHANNELS 3 Zrotation Xrotation Yrotation
		JOINT Spine1
		{
			OFFSET	 0.000000	 0.000000	 0.137269
			CHANNELS 3 Zrotation Xrotation Yrotation
			JOINT Spine2
			{
				OFFSET	 0.000000	 0.000000	 0.156879
				CHANNELS 3 Zrotation Xrotation Yrotation
				JOINT LeftShoulder
				{
					OFFSET	 0.080501	-0.002496	 0.160144
					CHANNELS 3 Zrotation Xrotation Yrotation
					JOINT LeftArm
					{
						OFFSET	 0.000000	 0.000000	 0.164363
						CHANNELS 3 Zrotation Xrotation Yrotation
						JOINT LeftForeArm
						{
							OFFSET	 0.000000	 0.000000	 0.364576
							CHANNELS 3 Zrotation Xrotation Yrotation
							JOINT LeftHand
							{
								OFFSET	 0.000000	 0.000000	 0.360812
								CHANNELS 3 Zrotation Xrotation Yrotation
								JOINT LeftHandIndex1
								{
									OFFSET	 0.000000	 0.000000	 0.086006
									CHANNELS 3 Zrotation Xrotation Yrotation
									JOINT LeftHandIndex2
									{
										OFFSET	 0.000000	 0.000000	 0.047236
										CHANNELS 3 Zrotation Xrotation Yrotation
										JOINT LeftHandIndex3
										{
											OFFSET	-0.004284	-0.000551	 0.038166
											CHANNELS 3 Zrotation Xrotation Yrotation
											End Site
											{
												OFFSET	-0.004284	-0.000551	 0.038166
											}
										}
									}
								}
							}
						}
					}
				}
				JOINT Neck
				{
					OFFSET	 0.000000	 0.000000	 0.176489
					CHANNELS 3 Zrotation Xrotation Yrotation
					JOINT Head
					{
						OFFSET	 0.000000	-0.001747	 0.077940
						CHANNELS 3 Zrotation Xrotation Yrotation
						End Site
						{
							OFFSET	 0.000000	-0.001747	 0.077940
						}
					}
				}
				JOINT RightShoulder
				{
					OFFSET	-0.080363	 0.000306	 0.159706
					CHANNELS 3 Zrotation Xrotation Yrotation
					JOINT RightArm
					{
						OFFSET	 0.000000	 0.000000	 0.164196
						CHANNELS 3 Zrotation Xrotation Yrotation
						JOINT RightForeArm
						{
							OFFSET	 0.000000	 0.000000	 0.365611
							CHANNELS 3 Zrotation Xrotation Yrotation
							JOINT RightHand
							{
								OFFSET	 0.000000	 0.000000	 0.360648
								CHANNELS 3 Zrotation Xrotation Yrotation
								JOINT RightHandIndex1
								{
									OFFSET	 0.000000	 0.000000	 0.069977
									CHANNELS 3 Zrotation Xrotation Yrotation
									JOINT RightHandIndex2
									{
										OFFSET	 0.000000	 0.000000	 0.052305
										CHANNELS 3 Zrotation Xrotation Yrotation
										JOINT RightHandIndex3
										{
											OFFSET	 0.009002	-0.000782	 0.042196
											CHANNELS 3 Zrotation Xrotation Yrotation
											End Site
											{
												OFFSET	 0.009002	-0.000782	 0.042196
											}
										}
									}
								}
							}
						}
					}
				}
			}
		}
	}
}
MOTION
Frames:    9
Frame Time: 0.03333334
-0.058985	-2.230593	 1.237018	 4.104159	-1.829085	-3.705542	 0.597426	-7.128594	-170.510100	 0.322968	-27.999280	-0.010174	 24.235270	 70.673970	-27.261530	-2.371325	 31.289130	-0.062561	-3.097396	-28.761970	-175.766000	 10.303980	-53.433540	 8.904580	 8.202074	 65.259700	-3.398947	 2.357868	 33.161700	 0.106981	 1.949943	 8.512768	 1.035300	 1.741929	 4.715292	 3.188805	-8.770862	-4.613069	-4.417237	-93.769700	 58.866530	 175.759500	 25.394320	 46.336590	-27.980030	-0.565731	-2.024381	-16.645360	-1.444488	-23.580220	-6.416095	-4.869466	 19.240180	-2.786449	-3.890729	 21.354980	 2.212093	-4.808240	 5.545723	 0.146953	-0.125814	-5.015544	 0.158729	-10.677720	 0.774870	 2.048363	 89.831940	 61.582200	-179.881500	-20.248660	 51.966270	 7.673381	-1.110566	-3.253247	 17.085250	-4.649498	-9.662704	 0.776674	 6.304406	 25.985610	-0.576918	 1.729259	 45.932900	-6.853364	 0.349057	 25.048130	 3.659057
-0.059526	-2.240653	 1.237422	 4.666893	-1.563896	-3.695250	 0.140252	-6.932088	-170.560300	 0.733583	-27.909750	 0.143674	 23.976400	 70.714040	-27.297940	-2.370345	 31.457040	-0.066348	-4.288928	-29.695870	-175.771500	 10.666120	-52.298530	 9.083632	 10.627410	 69.111690	-6.522114	 2.358440	 33.077870	 0.105034	 1.589844	 8.412910	 0.948380	 1.772365	 4.413506	 3.292419	-8.958049	-4.453943	-4.446276	-93.873880	 58.949440	 175.527600	 25.749790	 45.702080	-28.520110	-1.195060	-1.943726	-17.474980	-1.496968	-24.383360	-7.458169	-4.869211	 19.245360	-2.786491	-3.886563	 21.408340	 2.207870	-4.808264	 5.545496	 0.146969	-0.094707	-5.052677	 0.174567	-10.766380	 0.811949	 1.915983	 89.799260	 61.623740	-179.959300	-19.924820	 52.213370	 7.012338	-1.277538	-3.296191	 17.035430	-4.703319	-10.031610	 0.654670	 6.297618	 25.273510	-0.553894	 1.830177	 45.144010	-6.943740	 0.467857	 24.531860	 3.597983
-0.060123	-2.252123	 1.237653	 5.215972	-1.264532	-3.695701	-0.471324	-6.714622	-170.633400	 0.957602	-27.796820	 0.282089	 23.715920	 70.805130	-27.293490	-2.369372	 31.619200	-0.070025	-5.443088	-30.734580	-175.787100	 11.012850	-50.942850	 9.191353	 14.291750	 72.546440	-10.957240	 2.358909	 33.007850	 0.103413	 1.243861	 8.281484	 0.859720	 1.793946	 4.135115	 3.406669	-9.138660	-4.306430	-4.480079	-93.981420	 59.016680	 175.289700	 25.993240	 44.991580	-28.979390	-1.681067	-1.906403	-18.544810	-1.614398	-25.294060	-8.412236	-4.868244	 19.270200	-2.788145	-3.881842	 21.468770	 2.203076	-4.807687	 5.552263	 0.146577	-0.064777	-5.086113	 0.194327	-10.852690	 0.852376	 1.795572	 89.763820	 61.668190	 179.956300	-19.597980	 52.474210	 6.274160	-1.479741	-3.359994	 17.032950	-4.793619	-10.494680	 0.521676	 6.290002	 24.526750	-0.537963	 1.929540	 44.342240	-7.032328	 0.599019	 23.956170	 3.531571
-0.060754	-2.264773	 1.237698	 5.700177	-0.829198	-3.725983	-0.948755	-6.542913	-170.682900	 1.122362	-27.647400	 0.357159	 23.467790	 70.894780	-27.168260	-2.368547	 31.755900	-0.073121	-6.670203	-31.984930	-175.847400	 11.493970	-49.307130	 9.349915	 19.204930	 75.543300	-16.733840	 2.359005	 32.995080	 0.103107	 0.992015	 8.017143	 0.759908	 1.801670	 3.893685	 3.579563	-9.316313	-4.184027	-4.549248	-94.102730	 59.018790	 175.030500	 26.003850	 44.234440	-29.254340	-1.890231	-1.973263	-19.830590	-1.501733	-26.398900	-8.947774	-4.864401	 19.374800	-2.796260	-3.874922	 21.557250	 2.196042	-4.804715	 5.587265	 0.144522	-0.040071	-5.104161	 0.229724	-10.953710	 0.897631	 1.722420	 89.717570	 61.724060	 179.845700	-19.268340	 52.745850	 5.465912	-1.831669	-3.479757	 17.068450	-5.025668	-11.061350	 0.347014	 6.277667	 23.648560	-0.550278	 2.030788	 43.498550	-7.122183	 0.781274	 23.146290	 3.441076
-0.061436	-2.279519	 1.237529	 6.132788	-0.374953	-3.810810	-1.375397	-6.225811	-170.699700	 1.277332	-27.391600	 0.425413	 23.309150	 71.096790	-27.113900	-2.367504	 31.925940	-0.076986	-7.668464	-33.300250	-175.873100	 11.817220	-47.301960	 9.310442	 27.547500	 77.884620	-26.083610	 2.359491	 32.923190	 0.101437	 0.776500	 7.720409	 0.710070	 1.810268	 3.726806	 3.747667	-9.485750	-4.079304	-4.619529	-94.224100	 59.007110	 174.773300	 25.898460	 43.348220	-29.586650	-2.184970	-2.011320	-21.240910	-1.485719	-27.697520	-9.280035	-4.858795	 19.516170	-2.805243	-3.866425	 21.665550	 2.187407	-4.800406	 5.638069	 0.141549	-0.018879	-5.129354	 0.266394	-11.057670	 0.945728	 1.665442	 89.660810	 61.793260	 179.709200	-18.896060	 53.039540	 4.613119	-2.292490	-3.623977	 17.053740	-5.351937	-11.723840	 0.051943	 6.263040	 22.677930	-0.570605	 2.131804	 42.629110	-7.211372	 0.985935	 22.223330	 3.342027
-0.061903	-2.295627	 1.237068	 6.374316	 0.060689	-4.019002	-1.600975	-5.699380	-170.595700	 1.387085	-26.956430	 0.468932	 23.450100	 71.463080	-27.337390	-2.366071	 32.156060	-0.082241	-8.013575	-34.570270	-175.698400	 12.033840	-44.985510	 9.118403	 33.687930	 78.260830	-33.238250	 2.360878	 32.716490	 0.096649	 0.694373	 7.388831	 0.798686	 1.832836	 3.730571	 3.867041	-9.625918	-4.019829	-4.679235	-94.330850	 58.962840	 174.552500	 25.636390	 42.380840	-29.984250	-2.682117	-1.952555	-22.674960	-1.578895	-29.218820	-9.035502	-4.849635	 19.729490	-2.815217	-3.855161	 21.808610	 2.175967	-4.793355	 5.721067	 0.136675	-0.008876	-5.168851	 0.301627	-11.167920	 0.991272	 1.653583	 89.585410	 61.886130	 179.526900	-18.466850	 53.339270	 3.761015	-2.956493	-3.830679	 17.026110	-5.867191	-12.422900	-0.499051	 6.244494	 21.602010	-0.607733	 2.224658	 41.804370	-7.292936	 1.222365	 21.139290	 3.231053
-0.062368	-2.310575	 1.236399	 6.529793	 0.361144	-4.191661	-1.769637	-5.094308	-170.521400	 1.463757	-26.560200	 0.496837	 23.502780	 71.725130	-27.440130	-2.364089	 32.467730	-0.089380	-7.896633	-35.475310	-175.456500	 11.980920	-42.723210	 8.694445	 42.398850	 78.802640	-42.657300	 2.360000	 32.847290	 0.099682	 0.622236	 7.131796	 0.885601	 1.854154	 3.832942	 3.929843	-9.724289	-3.993572	-4.709643	-94.405970	 58.925510	 174.398400	 25.256590	 41.541440	-30.379750	-3.063436	-1.893453	-23.816140	-1.723675	-30.474820	-8.829324	-4.841059	 19.915890	-2.821034	-3.844272	 21.946570	 2.164897	-4.785872	 5.809026	 0.131505	 0.001569	-5.206856	 0.324944	-11.243370	 1.027209	 1.634465	 89.525980	 61.954450	 179.382500	-18.042380	 53.586540	 2.972339	-3.560328	-4.021727	 17.011720	-6.325292	-13.129330	-1.061819	 6.227143	 20.645150	-0.643237	 2.324467	 40.889400	-7.380137	 1.430141	 20.171090	 3.136666
-0.062985	-2.329458	 1.235289	 6.605678	 0.566321	-4.380069	-1.906734	-4.118177	-170.453900	 1.519213	-26.049770	 0.512324	 23.388040	 71.874790	-27.343560	-2.360097	 33.070150	-0.103290	-7.111633	-36.198760	-175.029700	 11.443950	-39.752120	 7.872919	 62.263750	 79.656990	-62.993390	 2.354549	 33.634880	 0.118050	 0.538991	 6.884625	 1.009610	 1.886598	 4.139853	 3.926024	-9.801803	-4.006423	-4.705658	-94.460510	 58.882690	 174.289000	 24.565040	 40.601960	-30.912660	-3.439535	-1.823021	-24.988610	-2.009858	-31.804260	-8.593192	-4.829527	 20.142920	-2.822266	-3.828867	 22.140600	 2.149256	-4.774099	 5.947228	 0.123347	 0.017691	-5.260211	 0.338303	-11.299770	 1.061493	 1.593404	 89.466380	 62.011490	 179.237300	-17.430840	 53.852450	 1.981357	-4.348622	-4.265780	 16.969660	-6.892360	-14.118840	-1.911076	 6.203903	 19.446480	-0.692571	 2.481906	 39.383460	-7.516635	 1.687862	 18.950330	 3.023792
-0.063798	-2.349349	 1.233834	 6.718924	 0.681019	-4.546864	-2.097098	-3.013941	-170.419900	 1.601482	-25.556340	 0.538783	 23.038680	 71.888160	-27.024110	-2.353617	 33.988580	-0.124780	-6.441915	-36.652390	-174.596500	 11.142500	-36.478820	 7.141417	 71.847150	 79.013820	-73.049160	 2.347802	 34.545850	 0.139623	 0.372107	 6.798046	 1.106322	 1.908630	 4.318171	 3.958862	-9.859768	-4.002979	-4.717736	-94.503510	 58.868600	 174.200000	 23.772930	 39.762930	-31.536440	-3.652275	-1.789942	-25.829760	-2.381750	-33.348980	-8.622087	-4.827887	 20.320870	-2.865472	-3.813401	 22.334600	 2.133543	-4.760105	 6.111059	 0.113643	 0.044242	-5.313402	 0.347896	-11.324800	 1.124251	 1.506984	 89.416240	 62.027530	 179.115600	-16.759270	 54.067480	 0.867230	-5.074363	-4.497205	 16.953200	-7.379061	-15.304920	-2.728508	 6.184341	 18.244490	-0.714747	 2.635120	 37.840210	-7.648115	 1.940851	 17.730980	 2.917634
